<svg version="1.1" xmlns="http://www.w3.org/2000/svg" viewBox="79.87 187.25 349.23 134.77">
<path d="M0 0 C2.9802092 4.27259766 1.74593475 8.18710151 0.9140625 13.05078125 C-0.68317837 20.55314986 -3.42646563 27.78924803 -6 35 C-2.43701525 33.70966779 1.12530081 32.41749914 4.6875 31.125 C5.69490234 30.76019531 6.70230469 30.39539063 7.74023438 30.01953125 C8.71669922 29.66503906 9.69316406 29.31054688 10.69921875 28.9453125 C11.59471436 28.62062988 12.49020996 28.29594727 13.4128418 27.96142578 C15.16917125 27.3087481 16.91173882 26.61803599 18.63989258 25.89404297 C22.32657991 24.49747226 25.51759262 24.50586421 29.25 25.75 C31.41756532 27.29826095 32.00002163 28.54391278 33 31 C33.43825551 35.85733192 32.39388323 39.99872366 29.625 44 C22.16299469 52.91541252 12.48130762 59.19928325 2 64 C1.34 64 0.68 64 0 64 C5.79428085 71.20518139 11.74795407 78.18630455 18 85 C14.73842219 88.59572609 12.73265578 89.88055568 7.94140625 90.20703125 C5.34456879 89.93010492 3.98451335 88.83565755 2.33984375 86.84765625 C1.89769531 86.23792969 1.45554687 85.62820313 1 85 C0.38253906 84.17371094 -0.23492187 83.34742188 -0.87109375 82.49609375 C-3.53600811 78.87402679 -6.14123951 75.21112186 -8.7421875 71.54296875 C-9.26039063 70.82753906 -9.77859375 70.11210937 -10.3125 69.375 C-10.98732422 68.42753906 -10.98732422 68.42753906 -11.67578125 67.4609375 C-13.04219276 65.71341969 -13.04219276 65.71341969 -16 65 C-16.25168945 65.74161377 -16.50337891 66.48322754 -16.76269531 67.24731445 C-17.91152952 70.60720698 -19.0804803 73.95975466 -20.25 77.3125 C-20.64574219 78.47974609 -21.04148437 79.64699219 -21.44921875 80.84960938 C-22.03896484 82.52700195 -22.03896484 82.52700195 -22.640625 84.23828125 C-22.99672852 85.26993408 -23.35283203 86.30158691 -23.71972656 87.36450195 C-25.11681548 90.24046971 -26.2517392 91.41643969 -29 93 C-31.80487038 93.09724916 -34.2142316 92.51072421 -37 92 C-38.13643966 88.59068103 -37.86747764 87.99664544 -36.5625 84.8125 C-36.27503906 84.09707031 -35.98757813 83.38164062 -35.69140625 82.64453125 C-35.46324219 82.10183594 -35.23507812 81.55914062 -35 81 C-35.94875 81.825 -36.8975 82.65 -37.875 83.5 C-40.75 86 -40.75 86 -43 86 C-43 86.66 -43 87.32 -43 88 C-44.86866762 88.70453003 -46.74531416 89.38791688 -48.625 90.0625 C-49.66914063 90.44535156 -50.71328125 90.82820313 -51.7890625 91.22265625 C-55.31785018 92.07694913 -57.51656778 91.9532028 -61 91 C-61.66 90.34 -62.32 89.68 -63 89 C-63 81.20541798 -59.41815724 74.85722063 -56 68 C-60.77021361 68.02263751 -60.77021361 68.02263751 -64.66748047 70.50195312 C-66.33890595 72.53475393 -67.90338503 74.6116508 -69.4375 76.75 C-73.55377846 82.40797484 -77.44948706 87.12134984 -84 90 C-87.3125 90.0625 -87.3125 90.0625 -90 89 C-91.875 86.9375 -91.875 86.9375 -93 85 C-93.4846875 85.3609375 -93.969375 85.721875 -94.46875 86.09375 C-99.58137748 89.63326133 -102.78518282 90.75006414 -109 90 C-112.00617269 86.99382731 -111.59585316 84.17618402 -112 80 C-112.680625 81.0828125 -112.680625 81.0828125 -113.375 82.1875 C-117.34409623 86.44010311 -122.39628137 89.6971665 -128.32421875 90.1953125 C-131.15187469 89.93397646 -133.46716655 89.33746119 -135.875 87.8125 C-137.40036687 85.35496448 -138.1162697 82.74401971 -139 80 C-139.77085937 80.63808594 -140.54171875 81.27617187 -141.3359375 81.93359375 C-142.33882812 82.75988281 -143.34171875 83.58617187 -144.375 84.4375 C-145.37273437 85.26121094 -146.37046875 86.08492188 -147.3984375 86.93359375 C-151.05842669 89.84070228 -153.2836641 90.36914122 -158.01953125 90.265625 C-160 90 -160 90 -162.5625 88.5625 C-164.81565364 84.54600873 -164.16479382 81.35474053 -163 77 C-161.84797088 74.111927 -160.56982081 71.32756479 -159.2109375 68.53125 C-157.88209389 65.75353819 -156.8771495 62.95041195 -156 60 C-166.04187774 63.76570415 -170.56604539 71.69162423 -174.95092773 81.08081055 C-175.55964047 82.42737639 -176.15713451 83.7790788 -176.74243164 85.13598633 C-178.81240891 89.90620445 -178.81240891 89.90620445 -181 91 C-182.54613014 90.91348369 -184.08909387 90.75997364 -185.625 90.5625 C-186.44226563 90.46066406 -187.25953125 90.35882813 -188.1015625 90.25390625 C-189.04128906 90.12822266 -189.04128906 90.12822266 -190 90 C-191.22744711 86.54570895 -191.00307297 84.48968711 -189.56640625 81.23046875 C-188.91230923 79.87602543 -188.24387185 78.52842954 -187.5625 77.1875 C-187.22412109 76.49462891 -186.88574219 75.80175781 -186.53710938 75.08789062 C-185.70369793 73.38585318 -184.85348076 71.69206285 -184 70 C-185.98 70.99 -185.98 70.99 -188 72 C-188.33 71.01 -188.66 70.02 -189 69 C-187.83241217 66.7119996 -186.63904236 64.64540446 -185.25 62.5 C-184.8890625 61.91863281 -184.528125 61.33726562 -184.15625 60.73828125 C-179.48692181 53.34517828 -179.48692181 53.34517828 -174.5 52.1875 C-171 52 -171 52 -168 54 C-167.3125 56.125 -167.3125 56.125 -167 58 C-166.52691406 57.65066406 -166.05382812 57.30132812 -165.56640625 56.94140625 C-160.56483824 53.49978148 -156.16606038 51.56543955 -150 52 C-146.94852848 53.33501879 -145.48813283 54.02373434 -144 57 C-143.38306418 63.20840472 -145.06758368 67.01909879 -147.9375 72.3125 C-148.31068359 73.02728516 -148.68386719 73.74207031 -149.06835938 74.47851562 C-150.03423266 76.3249869 -151.01602633 78.16311046 -152 80 C-152.33 80.66 -152.66 81.32 -153 82 C-144.47562124 78.08574445 -137.89793793 71.98182477 -133 64 C-128.27821936 58.60367926 -121.32963582 52.61925292 -113.94921875 51.76171875 C-108.27409283 51.57548837 -105.69776569 52.61323869 -101 56 C-98.89179203 55.6814823 -98.89179203 55.6814823 -97 55 C-94.8125 55.625 -94.8125 55.625 -93 57 C-91.59731822 60.57948512 -91.99919927 61.99797308 -93.43359375 65.62890625 C-94.08798108 66.94693487 -94.75642236 68.25806316 -95.4375 69.5625 C-98.24047702 74.96843473 -98.24047702 74.96843473 -99 81 C-94.4568953 78.72844765 -91.3344215 75.46222636 -87.8671875 71.83984375 C-85.22613319 69.23746597 -83.7804854 68 -80 68 C-80.72008406 72.60853797 -82.31295939 76.67237409 -84 81 C-77.67020561 78.73935915 -75.27166128 74.53398024 -72 69 C-72.76828125 69.03867187 -73.5365625 69.07734375 -74.328125 69.1171875 C-77.97035989 68.95744036 -79.40055995 67.45502671 -82 65 C-83.5547669 61.89046621 -83.28644437 59.43733239 -83 56 C-81.18610775 52.30245041 -79.91232832 50.47689889 -76.25 48.5625 C-71.23293696 47.69416217 -66.95928296 47.69381136 -62.5625 50.625 C-60.53489343 53.70696199 -60.27998092 56.36024802 -60 60 C-59.33613281 59.69964844 -58.67226563 59.39929688 -57.98828125 59.08984375 C-57.10527344 58.70957031 -56.22226562 58.32929688 -55.3125 57.9375 C-54.44238281 57.55464844 -53.57226562 57.17179687 -52.67578125 56.77734375 C-49.63062848 55.89269353 -47.9942282 56.02572813 -45 57 C-44.34 57.66 -43.68 58.32 -43 59 C-43.1062486 65.69366206 -44.88220593 70.55339742 -47.84375 76.51953125 C-48.8606627 78.70108384 -49.5183785 80.65209516 -50 83 C-34.6889024 75.30900884 -28.41115444 64.91516013 -23 49 C-24.05058594 49.15597656 -25.10117187 49.31195313 -26.18359375 49.47265625 C-33.690031 50.5324937 -40.46087199 51.34627286 -48 50 C-49.49155132 47.11461968 -50.21732596 45.7068695 -49.2421875 42.53515625 C-48.79101562 41.71917969 -48.33984375 40.90320313 -47.875 40.0625 C-47.16537109 38.76892578 -47.16537109 38.76892578 -46.44140625 37.44921875 C-45.96574219 36.64097656 -45.49007812 35.83273438 -45 35 C-44.61714844 34.34644531 -44.23429688 33.69289062 -43.83984375 33.01953125 C-42.8125 31.375 -42.8125 31.375 -41 29 C-40.34 29 -39.68 29 -39 29 C-38.75636719 28.28585938 -38.51273438 27.57171875 -38.26171875 26.8359375 C-33.29260753 15.66697544 -21.53259307 4.994434 -11 -1 C-6.68448649 -2.22283666 -4.10704529 -1.91662113 0 0 Z M-17.0625 12.625 C-23.56499575 19.2537578 -33 30.31267161 -33 40 C-31.43789839 40.05459773 -29.87522911 40.09306101 -28.3125 40.125 C-27.00732422 40.15980469 -27.00732422 40.15980469 -25.67578125 40.1953125 C-22.63912897 39.97365905 -20.70040015 39.41159718 -18 38 C-16.68445494 35.85697755 -16.68445494 35.85697755 -15.98046875 33.23828125 C-15.68076172 32.28373047 -15.38105469 31.32917969 -15.07226562 30.34570312 C-14.78029297 29.34474609 -14.48832031 28.34378906 -14.1875 27.3125 C-13.87619141 26.33087891 -13.56488281 25.34925781 -13.24414062 24.33789062 C-11.63245017 19.05650499 -10.60621856 14.5206613 -11 9 C-14.00020028 9 -14.93434361 10.56065076 -17.0625 12.625 Z M1.9375 39.8125 C0.44766602 40.19438477 0.44766602 40.19438477 -1.07226562 40.58398438 C-6.63743613 42.2272172 -6.63743613 42.2272172 -10.50341797 46.31787109 C-11.52232922 48.85878398 -12.28394064 51.35983381 -13 54 C-13.57053101 55.30094604 -13.57053101 55.30094604 -14.15258789 56.62817383 C-15.31007157 59.09808391 -15.31007157 59.09808391 -14 62 C-13.34 61.34 -12.68 60.68 -12 60 C-9.82875534 59.2041653 -7.63765411 58.46202398 -5.4375 57.75 C3.61536202 54.65284634 11.71175679 50.2723233 17 42 C17.67012026 39.87545774 17.67012026 39.87545774 18 38 C12.10374812 36.46296831 7.63636003 38.10098569 1.9375 39.8125 Z M-71 56 C-71.66 57.32 -72.32 58.64 -73 60 C-71.68 60.33 -70.36 60.66 -69 61 C-68.67 59.35 -68.34 57.7 -68 56 C-68.99 56 -69.98 56 -71 56 Z M-124.71875 69.359375 C-127.47314681 73.7435773 -127.47314681 73.7435773 -127.6171875 78.76953125 C-127.41351563 79.50558594 -127.20984375 80.24164063 -127 81 C-124.6924435 81.77184293 -124.6924435 81.77184293 -122 82 C-118.89074938 80.2015119 -116.51008567 77.55279034 -114 75 C-113.32839844 74.32710937 -112.65679687 73.65421875 -111.96484375 72.9609375 C-108.41699224 69.18724739 -106 66.43469442 -106 61 C-106.33 60.34 -106.66 59.68 -107 59 C-115.29195282 57.58860378 -120.06668183 62.97335415 -124.71875 69.359375 Z " fill="#111111" transform="translate(396,189)"/>
<path d="M0 0 C1.9619526 2.9429289 2.00536974 4.72077368 1.9375 8.25 C-0.2217001 16.88680039 -5.17805402 22.58218147 -11.125 29 C-11.74721436 29.67160156 -12.36942871 30.34320313 -13.01049805 31.03515625 C-18.57493129 36.88407893 -18.57493129 36.88407893 -23.04296875 37.09765625 C-24.10451172 37.08025391 -24.10451172 37.08025391 -25.1875 37.0625 C-26.445625 37.041875 -27.70375 37.02125 -29 37 C-28.48193823 28.71101175 -20.37013969 22.08137559 -15.05078125 16.39453125 C-11.08540457 11.77369667 -11.08540457 11.77369667 -10 6 C-25.43166196 4.2056207 -44.14033662 18.14502034 -56 27 C-57.6938056 28.63907844 -59.35835418 30.3086826 -61 32 C-62.09495628 33.03290484 -63.19415914 34.0613208 -64.296875 35.0859375 C-65.44810332 36.18209567 -66.59914244 37.27845257 -67.75 38.375 C-68.33910156 38.91382813 -68.92820312 39.45265625 -69.53515625 40.0078125 C-73.56113001 43.89495958 -74.8008022 46.37977629 -75 52 C-72.29238765 52.7494495 -69.8062737 53.14906939 -67.00097656 53.24951172 C-66.22627014 53.27979462 -65.45156372 53.31007751 -64.65338135 53.34127808 C-63.82417175 53.37045319 -62.99496216 53.3996283 -62.140625 53.4296875 C-60.36716498 53.50336614 -58.59372806 53.57760263 -56.8203125 53.65234375 C-54.03824729 53.76552745 -51.25622857 53.87477763 -48.47363281 53.97412109 C-45.77866601 54.0723202 -43.0848157 54.18730523 -40.390625 54.3046875 C-39.56951233 54.32981415 -38.74839966 54.3549408 -37.90240479 54.38082886 C-32.37489713 54.63769697 -28.03901939 55.65851804 -23 58 C-20.90853758 61.13719363 -20.46676515 63.05597118 -20.54296875 66.796875 C-21.39820836 70.91956853 -24.03000906 74.10227161 -27 77 C-28.485 77.495 -28.485 77.495 -30 78 C-30 78.66 -30 79.32 -30 80 C-53.11558669 92.08581436 -53.11558669 92.08581436 -65 93 C-65.66773437 93.0515625 -66.33546875 93.103125 -67.0234375 93.15625 C-71.598472 93.36034076 -74.348169 92.76653863 -78 90 C-79 89 -79 89 -79.375 85.75 C-79 82 -79 82 -77.1875 79.25 C-70.56063107 74.57221017 -62.95717231 73.54959402 -55 74 C-55 74.66 -55 75.32 -55 76 C-56.6796875 77.5078125 -56.6796875 77.5078125 -58.875 79.125 C-59.59429687 79.66382813 -60.31359375 80.20265625 -61.0546875 80.7578125 C-63 82 -63 82 -65 82 C-65 82.66 -65 83.32 -65 84 C-55.0322989 82.86195539 -44.77333591 79.82972775 -38 72 C-36.85563707 68.42013037 -36.85563707 68.42013037 -38 65 C-46.49728497 63.33513755 -55.37568772 63.70514681 -64.01318359 63.59863281 C-84.12959048 63.33035238 -84.12959048 63.33035238 -90.6875 57.6875 C-92 55 -92 55 -92.125 52.1875 C-90.82620483 48.50758035 -89.02752312 46.03164019 -86.6015625 43.0078125 C-85.16136471 41.20229624 -83.89478829 39.36377748 -82.625 37.4375 C-78.02612903 30.97857612 -71.28290237 26.35191147 -65.046875 21.578125 C-63.35719265 20.27539281 -61.70441675 18.92494155 -60.0625 17.5625 C-58 16 -58 16 -56 16 C-56 15.34 -56 14.68 -56 14 C-54.21118264 12.99491199 -52.41885304 11.99607264 -50.625 11 C-49.62726563 10.443125 -48.62953125 9.88625 -47.6015625 9.3125 C-45 8 -45 8 -43 8 C-43 7.34 -43 6.68 -43 6 C-12.28684406 -7.12636955 -12.28684406 -7.12636955 0 0 Z " fill="#101010" transform="translate(172,197)"/>
<path d="M0 0 C-0.55659493 7.10546716 -4.30931522 13.07016784 -7.49414062 19.30078125 C-10.76892216 25.80220996 -10.76892216 25.80220996 -11 33 C-10.21625 32.505 -9.4325 32.01 -8.625 31.5 C-6 30 -6 30 -4 30 C-3.75765625 29.46375 -3.5153125 28.9275 -3.265625 28.375 C-1.35218145 24.7843405 1.10213393 21.5919144 3.47875977 18.29589844 C6.18981893 14.43542779 8.11202489 10.62277131 9.9375 6.25 C12.2573143 1.31062012 12.2573143 1.31062012 15.484375 -0.0390625 C19.96567394 -0.59598693 22.17738087 -0.54841275 26 2 C24.64894705 9.70100181 21.89539419 16.55328961 18.91113281 23.73828125 C17.83140003 26.41851826 16.82430455 29.12297415 15.80859375 31.828125 C12.79267868 39.70046281 9.38812895 47.39060672 5.95166016 55.08691406 C4.86521125 57.52193924 3.78584303 59.96002064 2.70703125 62.3984375 C2.01083368 63.96372721 1.31423381 65.52883806 0.6171875 67.09375 C0.29837616 67.81461792 -0.02043518 68.53548584 -0.34890747 69.27819824 C-2.02167334 73.01156472 -3.80085758 76.53734111 -6 80 C-10.21912747 79.5205537 -12.79663178 78.83374881 -16 76 C-15.53108112 69.60012562 -13.22798909 64.75543893 -10.375 59.0625 C-9.4666784 57.2067417 -8.56044998 55.3499575 -7.65625 53.4921875 C-7.20765625 52.57276367 -6.7590625 51.65333984 -6.296875 50.70605469 C-4.39609451 46.73989299 -2.62035125 42.72402986 -0.875 38.6875 C-0.43293213 37.66571655 -0.43293213 37.66571655 0.01806641 36.62329102 C0.68165761 35.08346054 1.34134581 33.54194871 2 32 C1.31292969 32.56589844 0.62585938 33.13179688 -0.08203125 33.71484375 C-0.98308594 34.44832031 -1.88414062 35.18179688 -2.8125 35.9375 C-3.70582031 36.66839844 -4.59914062 37.39929688 -5.51953125 38.15234375 C-8.86992559 40.64799182 -11.42616601 41.15355138 -15.5 41.1875 C-16.2734375 41.20167969 -17.046875 41.21585937 -17.84375 41.23046875 C-20 41 -20 41 -23 39 C-26.03980055 29.88059836 -22.22440799 21.53255595 -19 13 C-18.59265625 11.8965625 -18.1853125 10.793125 -17.765625 9.65625 C-14.87578234 2.5254694 -14.87578234 2.5254694 -11.1875 0.3125 C-7.40804488 -0.05803482 -3.79696635 -0.13092987 0 0 Z " fill="#101010" transform="translate(181,242)"/>
</svg>